<?xml version="1.0" standalone="no"?>
<!DOCTYPE svg PUBLIC "-//W3C//DTD SVG 20010904//EN"
 "http://www.w3.org/TR/2001/REC-SVG-20010904/DTD/svg10.dtd">
<svg version="1.0" xmlns="http://www.w3.org/2000/svg"
 width="531.000000pt" height="188.000000pt" viewBox="0 0 531.000000 188.000000"
 preserveAspectRatio="xMidYMid meet">
<metadata>
Created by potrace 1.16, written by Peter Selinger 2001-2019
</metadata>
<g transform="translate(0.000000,188.000000) scale(0.100000,-0.100000)"
fill="#000000" stroke="none">
<path d="M1675 1776 c-67 -22 -101 -43 -144 -92 -138 -157 -93 -389 93 -484
65 -33 75 -35 165 -35 85 0 102 3 147 27 95 50 154 145 154 250 l0 38 -141 0
-140 0 3 -42 3 -43 88 -3 c86 -3 88 -3 81 -25 -22 -72 -99 -119 -195 -119
-186 0 -303 185 -214 338 44 75 115 114 208 114 65 0 133 -26 190 -72 l27 -22
33 32 32 32 -30 26 c-17 14 -59 39 -95 57 -54 26 -78 32 -145 34 -46 2 -97 -3
-120 -11z"/>
<path d="M2123 1767 c3 -7 46 -79 96 -160 l91 -147 0 -146 0 -145 43 3 42 3 3
143 3 143 94 155 c52 86 95 157 95 160 0 2 -22 4 -49 4 l-50 0 -57 -92 c-31
-51 -62 -101 -69 -111 -11 -16 -20 -7 -80 92 l-68 111 -50 0 c-36 0 -48 -3
-44 -13z"/>
<path d="M2642 1478 l3 -303 153 -3 152 -3 0 45 0 45 -107 3 -108 3 -3 258 -2
257 -45 0 -45 0 2 -302z"/>
<path d="M2974 1758 c3 -13 59 -151 125 -308 92 -219 124 -286 138 -288 16 -2
39 44 146 296 70 165 127 305 127 311 0 6 -18 11 -44 11 l-44 0 -77 -182 c-43
-101 -82 -195 -87 -210 -6 -16 -13 -28 -18 -28 -4 0 -26 46 -50 103 -23 56
-62 150 -87 210 l-45 107 -45 0 c-42 0 -45 -2 -39 -22z"/>
<path d="M3570 1475 l0 -295 45 0 45 0 0 295 0 295 -45 0 -45 0 0 -295z"/>
<path d="M550 1010 c-187 -32 -239 -273 -82 -381 31 -21 47 -24 122 -24 78 0
91 3 128 28 23 15 42 32 42 37 0 22 -29 20 -65 -4 -66 -45 -142 -46 -206 -3
-98 66 -94 217 8 287 55 38 137 35 196 -7 28 -19 49 -28 58 -23 10 7 10 11 -1
25 -42 50 -126 77 -200 65z"/>
<path d="M3130 1010 c-125 -21 -201 -143 -166 -264 17 -57 63 -111 113 -132
49 -21 149 -18 199 7 56 27 71 44 54 64 -12 14 -15 13 -34 -4 -51 -48 -129
-62 -193 -36 -72 30 -104 78 -105 155 -1 150 174 232 290 135 19 -15 33 -21
42 -15 12 7 12 11 0 25 -42 50 -126 77 -200 65z"/>
<path d="M943 989 c-150 -74 -148 -296 3 -370 65 -31 158 -24 216 16 61 44 89
104 85 182 -2 50 -9 71 -32 105 -60 83 -179 113 -272 67z m147 -19 c41 -11 94
-61 109 -103 53 -140 -88 -278 -221 -219 -113 49 -142 183 -61 273 48 53 103
69 173 49z"/>
<path d="M1608 857 l-3 -155 -129 149 c-71 82 -133 149 -137 149 -5 0 -9 -88
-9 -195 0 -188 1 -195 20 -195 19 0 20 7 20 146 0 80 4 144 9 142 4 -1 63 -66
130 -143 68 -77 127 -142 132 -143 6 -2 8 74 7 194 -3 179 -5 199 -20 202 -16
3 -18 -11 -20 -151z"/>
<path d="M1759 984 c-17 -19 -23 -36 -23 -66 1 -37 8 -47 83 -117 44 -42 81
-81 81 -86 -1 -51 -48 -91 -95 -79 -14 3 -36 20 -48 36 -21 26 -25 27 -36 14
-11 -13 -8 -21 22 -51 31 -31 41 -35 84 -35 51 1 68 10 96 50 36 53 12 112
-75 180 -66 52 -84 83 -69 116 14 31 65 33 96 4 13 -12 29 -18 38 -14 24 9 21
19 -14 48 -43 36 -106 36 -140 0z"/>
<path d="M1990 991 c0 -16 8 -20 43 -23 l42 -3 3 -177 c2 -170 3 -178 22 -178
19 0 20 7 20 179 l0 180 43 3 c29 2 42 8 42 18 0 12 -20 16 -107 18 -102 3
-108 2 -108 -17z"/>
<path d="M2270 811 c0 -194 1 -201 20 -201 19 0 20 7 20 90 0 66 3 90 13 90 6
-1 43 -41 80 -90 53 -70 74 -90 93 -90 23 0 20 6 -41 83 -36 45 -65 85 -65 89
0 3 15 10 32 14 76 16 109 67 89 134 -15 52 -46 67 -154 76 l-87 7 0 -202z
m188 136 c8 -9 15 -30 15 -48 0 -48 -32 -69 -104 -69 l-59 0 0 71 0 72 66 -6
c40 -3 72 -11 82 -20z"/>
<path d="M2610 850 c0 -178 7 -208 60 -235 37 -19 103 -19 139 0 51 26 61 65
61 240 0 144 -1 156 -17 153 -16 -3 -19 -21 -23 -165 -4 -138 -8 -164 -24
-181 -38 -43 -120 -36 -145 11 -6 13 -12 86 -13 177 -3 138 -5 155 -20 158
-17 3 -18 -10 -18 -158z"/>
<path d="M3390 991 c0 -16 8 -20 43 -23 l42 -3 3 -177 c2 -170 3 -178 22 -178
19 0 20 7 20 180 l0 180 46 0 c38 0 45 3 42 18 -3 15 -18 17 -111 20 -101 3
-107 2 -107 -17z"/>
<path d="M3762 989 c-76 -38 -117 -115 -110 -204 18 -220 335 -255 406 -46 60
175 -127 333 -296 250z m164 -28 c109 -50 137 -183 57 -272 -62 -69 -156 -76
-228 -17 -84 70 -87 186 -8 261 52 48 113 58 179 28z"/>
<path d="M4157 1003 c-4 -3 -7 -93 -7 -200 0 -186 1 -193 20 -193 19 0 20 7
20 90 0 71 3 90 14 90 11 0 92 -96 152 -178 1 -2 12 -2 24 0 20 3 16 11 -44
88 l-65 85 41 12 c63 18 88 48 88 103 0 61 -30 91 -103 101 -67 10 -132 11
-140 2z m162 -44 c32 -11 45 -38 39 -80 -4 -33 -44 -50 -108 -47 l-55 3 -3 54
c-2 29 -1 60 2 67 7 17 80 19 125 3z"/>
<path d="M4497 1003 c-4 -3 -7 -93 -7 -200 l0 -193 115 0 c94 0 115 3 115 15
0 11 -19 15 -92 17 l-93 3 -3 78 -3 77 96 0 c88 0 95 1 95 20 0 19 -7 20 -95
20 l-96 0 3 63 3 62 93 3 c84 2 92 4 92 22 0 19 -7 20 -108 20 -60 0 -112 -3
-115 -7z"/>
<path d="M4805 985 c-18 -18 -25 -35 -25 -65 0 -36 6 -46 47 -83 106 -96 113
-104 113 -134 0 -34 -22 -58 -61 -68 -21 -5 -34 0 -62 24 -38 34 -57 39 -57
15 0 -24 55 -71 89 -76 69 -10 135 41 133 102 -1 42 -32 84 -104 143 -45 37
-58 54 -58 75 0 16 5 33 12 40 19 19 70 14 94 -9 23 -22 44 -19 44 6 0 26 -51
55 -97 55 -33 0 -50 -6 -68 -25z"/>
<path d="M80 355 l0 -25 2565 0 2565 0 0 25 0 25 -2565 0 -2565 0 0 -25z"/>
<path d="M440 235 c0 -13 252 -15 2205 -15 1953 0 2205 2 2205 15 0 13 -252
15 -2205 15 -1953 0 -2205 -2 -2205 -15z"/>
</g>
</svg>
