<?xml version="1.0" encoding="UTF-8"?>
<!DOCTYPE svg PUBLIC "-//W3C//DTD SVG 1.1//EN" "http://www.w3.org/Graphics/SVG/1.1/DTD/svg11.dtd">
<svg xmlns="http://www.w3.org/2000/svg" version="1.1" width="320px" height="75px" style="shape-rendering:geometricPrecision; text-rendering:geometricPrecision; image-rendering:optimizeQuality; fill-rule:evenodd; clip-rule:evenodd" xmlns:xlink="http://www.w3.org/1999/xlink">
<g><path style="opacity:0.821" fill="#16279b" d="M 59.5,21.5 C 58.7354,21.0766 57.9021,20.7432 57,20.5C 55.0748,22.5385 52.9081,24.2052 50.5,25.5C 49.791,24.596 48.791,24.2627 47.5,24.5C 50.1059,20.2073 53.7725,17.5406 58.5,16.5C 58.6287,18.2161 58.962,19.8828 59.5,21.5 Z"/></g>
<g><path style="opacity:1" fill="#16279b" d="M 110.5,24.5 C 106.833,24.5 103.167,24.5 99.5,24.5C 99.6664,32.5069 99.4997,40.5069 99,48.5C 97.3023,49.733 95.3023,50.3996 93,50.5C 90.6977,50.3996 88.6977,49.733 87,48.5C 86.5003,40.5069 86.3336,32.5069 86.5,24.5C 83.1667,24.5 79.8333,24.5 76.5,24.5C 75.1857,22.1047 75.1857,19.6047 76.5,17C 87.8333,16.3333 99.1667,16.3333 110.5,17C 111.814,19.6047 111.814,22.1047 110.5,24.5 Z"/></g>
<g><path style="opacity:1" fill="#162697" d="M 151.5,48.5 C 151.5,48.8333 151.5,49.1667 151.5,49.5C 147.285,51.4364 142.619,52.1031 137.5,51.5C 136.599,50.7095 135.932,49.7095 135.5,48.5C 134.18,45.8599 132.847,43.1932 131.5,40.5C 130.311,39.5713 128.978,39.238 127.5,39.5C 127.5,42.5 127.5,45.5 127.5,48.5C 127.67,49.8221 127.337,50.9887 126.5,52C 122.167,52.6667 117.833,52.6667 113.5,52C 112.663,50.9887 112.33,49.8221 112.5,48.5C 112.334,38.1613 112.5,27.828 113,17.5C 122.089,16.3497 131.255,16.183 140.5,17C 148.696,19.1776 151.862,24.3443 150,32.5C 147.982,34.3501 146.149,36.3501 144.5,38.5C 146.843,41.8624 149.176,45.1957 151.5,48.5 Z M 127.5,24.5 C 129.857,24.3367 132.19,24.5034 134.5,25C 137.228,27.4348 136.894,29.4348 133.5,31C 131.527,31.4955 129.527,31.6621 127.5,31.5C 127.5,29.1667 127.5,26.8333 127.5,24.5 Z"/></g>
<g><path style="opacity:1" fill="#16279c" d="M 169.5,17.5 C 169.5,28.5 169.5,39.5 169.5,50.5C 165.5,50.5 161.5,50.5 157.5,50.5C 157.5,39.5 157.5,28.5 157.5,17.5C 161.5,16.1667 165.5,16.1667 169.5,17.5 Z"/></g>
<g><path style="opacity:1" fill="#111d72" d="M 157.5,17.5 C 157.5,28.5 157.5,39.5 157.5,50.5C 161.5,50.5 165.5,50.5 169.5,50.5C 169.5,39.5 169.5,28.5 169.5,17.5C 170.494,27.6532 170.828,37.9865 170.5,48.5C 171.5,48.5 172.5,48.5 173.5,48.5C 173.5,49.5 173.5,50.5 173.5,51.5C 177.167,51.5 180.833,51.5 184.5,51.5C 175.656,51.4417 166.656,51.6084 157.5,52C 156.663,50.9887 156.33,49.8221 156.5,48.5C 156.172,37.9865 156.506,27.6532 157.5,17.5 Z"/></g>
<g><path style="opacity:1" fill="#162697" d="M 216.5,48.5 C 217.684,49.6879 217.684,50.8545 216.5,52C 212.167,52.6667 207.833,52.6667 203.5,52C 202.177,51.1841 201.511,50.0174 201.5,48.5C 201.196,47.8501 200.863,47.1835 200.5,46.5C 196.167,45.1667 191.833,45.1667 187.5,46.5C 187.137,47.1835 186.804,47.8501 186.5,48.5C 186.068,49.7095 185.401,50.7095 184.5,51.5C 180.833,51.5 177.167,51.5 173.5,51.5C 173.5,50.5 173.5,49.5 173.5,48.5C 177.831,37.6722 182.831,27.1722 188.5,17C 192.833,16.3333 197.167,16.3333 201.5,17C 206.626,27.4194 211.626,37.9194 216.5,48.5 Z M 193.5,29.5 C 195.02,31.8902 196.02,34.5568 196.5,37.5C 194.473,37.6621 192.473,37.4955 190.5,37C 191.642,34.5501 192.642,32.0501 193.5,29.5 Z"/></g>
<g><path style="opacity:1" fill="#111e76" d="M 220.5,17.5 C 220.5,28.5 220.5,39.5 220.5,50.5C 223.833,50.5 227.167,50.5 230.5,50.5C 230.334,43.4921 230.5,36.4921 231,29.5C 231.513,30.5266 232.013,31.5266 232.5,32.5C 231.512,37.6405 231.179,42.9738 231.5,48.5C 231.67,49.8221 231.337,50.9887 230.5,52C 227.167,52.6667 223.833,52.6667 220.5,52C 219.663,50.9887 219.33,49.8221 219.5,48.5C 219.172,37.9865 219.506,27.6532 220.5,17.5 Z"/></g>
<g><path style="opacity:1" fill="#162698" d="M 257.5,48.5 C 257.67,49.8221 257.337,50.9887 256.5,52C 252.179,52.499 247.846,52.6657 243.5,52.5C 243.771,50.6203 243.104,49.287 241.5,48.5C 238.5,43.1667 235.5,37.8333 232.5,32.5C 232.013,31.5266 231.513,30.5266 231,29.5C 230.5,36.4921 230.334,43.4921 230.5,50.5C 227.167,50.5 223.833,50.5 220.5,50.5C 220.5,39.5 220.5,28.5 220.5,17.5C 224.981,16.3516 229.648,16.1849 234.5,17C 237.876,22.2532 241.376,27.4198 245,32.5C 245.333,27.5 245.667,22.5 246,17.5C 249.409,16.3781 252.909,16.2114 256.5,17C 257.487,27.4179 257.82,37.9179 257.5,48.5 Z"/></g>
<g><path style="opacity:1" fill="#162696" d="M 304.5,48.5 C 305.684,49.6879 305.684,50.8545 304.5,52C 300.167,52.6667 295.833,52.6667 291.5,52C 290.177,51.1841 289.511,50.0174 289.5,48.5C 289.196,47.8501 288.863,47.1835 288.5,46.5C 284.167,45.1667 279.833,45.1667 275.5,46.5C 275.137,47.1835 274.804,47.8501 274.5,48.5C 273.972,49.7206 273.305,50.8873 272.5,52C 268.514,52.4988 264.514,52.6655 260.5,52.5C 260.5,51.1667 260.5,49.8333 260.5,48.5C 265.676,37.983 271.009,27.483 276.5,17C 280.833,16.3333 285.167,16.3333 289.5,17C 294.626,27.4194 299.626,37.9194 304.5,48.5 Z M 281.5,29.5 C 283.02,31.8902 284.02,34.5568 284.5,37.5C 282.473,37.6621 280.473,37.4955 278.5,37C 279.642,34.5501 280.642,32.0501 281.5,29.5 Z"/></g>
<g><path style="opacity:1" fill="#121e79" d="M 76.5,24.5 C 79.8333,24.5 83.1667,24.5 86.5,24.5C 86.3336,32.5069 86.5003,40.5069 87,48.5C 88.6977,49.733 90.6977,50.3996 93,50.5C 95.3023,50.3996 97.3023,49.733 99,48.5C 99.4997,40.5069 99.6664,32.5069 99.5,24.5C 103.167,24.5 106.833,24.5 110.5,24.5C 107.375,25.4794 104.042,25.8128 100.5,25.5C 100.5,33.1667 100.5,40.8333 100.5,48.5C 100.67,49.8221 100.337,50.9887 99.5,52C 94.7481,52.7734 90.0815,52.6068 85.5,51.5C 85.5,42.8333 85.5,34.1667 85.5,25.5C 82.2869,25.81 79.2869,25.4767 76.5,24.5 Z"/></g>
<g><path style="opacity:1" fill="#0d1b6d" d="M 59.5,21.5 C 60.8698,23.2504 61.8698,25.2504 62.5,27.5C 61.1932,28.1534 59.8599,28.8201 58.5,29.5C 56.5607,27.3824 54.394,27.049 52,28.5C 50.9614,27.7562 50.4614,26.7562 50.5,25.5C 52.9081,24.2052 55.0748,22.5385 57,20.5C 57.9021,20.7432 58.7354,21.0766 59.5,21.5 Z"/></g>
<g><path style="opacity:0.887" fill="#16279c" d="M 46.5,25.5 C 49.2897,28.2988 52.123,31.2988 55,34.5C 55.195,35.8193 55.0283,37.1526 54.5,38.5C 49.1787,36.8376 43.8453,35.1709 38.5,33.5C 40.8544,30.4789 43.5211,27.8123 46.5,25.5 Z"/></g>
<g><path style="opacity:0.761" fill="#16279c" d="M 64.5,32.5 C 67.9437,40.033 70.777,47.6996 73,55.5C 69.3028,50.6377 65.1361,46.3043 60.5,42.5C 61.9657,39.7528 62.7991,36.7528 63,33.5C 63.3826,32.944 63.8826,32.6107 64.5,32.5 Z"/></g>
<g><path style="opacity:0.904" fill="#081454" d="M 47.5,24.5 C 48.791,24.2627 49.791,24.596 50.5,25.5C 50.4614,26.7562 50.9614,27.7562 52,28.5C 54.394,27.049 56.5607,27.3824 58.5,29.5C 59.8599,28.8201 61.1932,28.1534 62.5,27.5C 63.1667,29.1667 63.8333,30.8333 64.5,32.5C 63.8826,32.6107 63.3826,32.944 63,33.5C 62.7991,36.7528 61.9657,39.7528 60.5,42.5C 58.1184,41.6493 56.1184,40.316 54.5,38.5C 55.0283,37.1526 55.195,35.8193 55,34.5C 52.123,31.2988 49.2897,28.2988 46.5,25.5C 46.5,24.8333 46.8333,24.5 47.5,24.5 Z"/></g>
<g><path style="opacity:0.894" fill="#1f1f1d" d="M 64.5,63.5 C 64.5531,60.9394 63.5531,58.9394 61.5,57.5C 61.1667,58 60.8333,58.5 60.5,59C 61.4138,60.4064 62.0805,61.9064 62.5,63.5C 59.4281,63.8174 56.4281,63.4841 53.5,62.5C 50.2411,57.0263 45.5744,53.193 39.5,51C 32.0089,48.6959 24.3422,47.3625 16.5,47C 18.0414,45.6288 19.3747,44.1288 20.5,42.5C 25.2137,42.8266 29.8804,42.4933 34.5,41.5C 30.5546,40.5091 26.5546,40.1758 22.5,40.5C 24.3858,36.4561 27.5525,34.7894 32,35.5C 50.995,36.6768 64.8283,45.6768 73.5,62.5C 70.5719,63.4841 67.5719,63.8174 64.5,63.5 Z"/></g>
<g><path style="opacity:0.875" fill="#eaeaea" d="M 22.5,40.5 C 26.5546,40.1758 30.5546,40.5091 34.5,41.5C 29.8804,42.4933 25.2137,42.8266 20.5,42.5C 20.8333,41.5 21.5,40.8333 22.5,40.5 Z"/></g>
<g><path style="opacity:1" fill="#d4d4d3" d="M 35.5,41.5 C 39.0487,41.4392 42.3821,42.2725 45.5,44C 44.8921,44.8699 44.0588,45.3699 43,45.5C 39.869,44.9856 37.369,43.6523 35.5,41.5 Z"/></g>
<g><path style="opacity:1" fill="#d9d9d8" d="M 54.5,50.5 C 51.2857,49.5596 48.2857,48.0596 45.5,46C 46,45.5 46.5,45 47,44.5C 49.087,45.7938 51.2537,46.9605 53.5,48C 54.2524,48.6708 54.5858,49.5041 54.5,50.5 Z"/></g>
<g><path style="opacity:0.857" fill="#c0bfbf" d="M 21.5,49.5 C 33.1463,48.9915 42.4796,53.3248 49.5,62.5C 36.8465,63.666 24.1798,63.8326 11.5,63C 10.5494,62.2825 10.3828,61.4491 11,60.5C 14.7039,56.9643 18.2039,53.2976 21.5,49.5 Z"/></g>
<g><path style="opacity:1" fill="#e4e4e3" d="M 54.5,50.5 C 57.1865,51.6638 59.5199,53.4971 61.5,56C 57.921,55.9369 55.5877,54.1036 54.5,50.5 Z"/></g>
<g><path style="opacity:0.018" fill="#020412" d="M 135.5,48.5 C 135.932,49.7095 136.599,50.7095 137.5,51.5C 142.305,52.4872 147.305,52.8205 152.5,52.5C 152.737,51.209 152.404,50.209 151.5,49.5C 151.5,49.1667 151.5,48.8333 151.5,48.5C 153.017,48.5106 154.184,49.1772 155,50.5C 155.278,49.5842 155.778,48.9175 156.5,48.5C 156.33,49.8221 156.663,50.9887 157.5,52C 166.656,51.6084 175.656,51.4417 184.5,51.5C 185.401,50.7095 186.068,49.7095 186.5,48.5C 187.887,50.4888 187.553,52.3221 185.5,54C 180.667,54.1667 175.833,54.3333 171,54.5C 159.54,53.8643 148.04,53.6976 136.5,54C 134.447,52.3221 134.113,50.4888 135.5,48.5 Z"/></g>
<g><path style="opacity:0.749" fill="#0e1862" d="M 151.5,49.5 C 152.404,50.209 152.737,51.209 152.5,52.5C 147.305,52.8205 142.305,52.4872 137.5,51.5C 142.619,52.1031 147.285,51.4364 151.5,49.5 Z"/></g>
<g><path style="opacity:0.022" fill="#020310" d="M 100.5,48.5 C 102.983,50.3115 102.983,52.1448 100.5,54C 96.1667,54.6667 91.8333,54.6667 87.5,54C 86.244,53.5831 85.5774,52.7498 85.5,51.5C 90.0815,52.6068 94.7481,52.7734 99.5,52C 100.337,50.9887 100.67,49.8221 100.5,48.5 Z"/></g>
<g><path style="opacity:0.02" fill="#020310" d="M 112.5,48.5 C 112.33,49.8221 112.663,50.9887 113.5,52C 117.833,52.6667 122.167,52.6667 126.5,52C 127.337,50.9887 127.67,49.8221 127.5,48.5C 129.983,50.3115 129.983,52.1448 127.5,54C 122.5,54.6667 117.5,54.6667 112.5,54C 110.017,52.1448 110.017,50.3115 112.5,48.5 Z"/></g>
<g><path style="opacity:0.02" fill="#020311" d="M 201.5,48.5 C 201.511,50.0174 202.177,51.1841 203.5,52C 207.833,52.6667 212.167,52.6667 216.5,52C 217.684,50.8545 217.684,49.6879 216.5,48.5C 217.5,48.5 218.5,48.5 219.5,48.5C 219.33,49.8221 219.663,50.9887 220.5,52C 223.833,52.6667 227.167,52.6667 230.5,52C 231.337,50.9887 231.67,49.8221 231.5,48.5C 233.983,50.3115 233.983,52.1448 231.5,54C 229.5,54.1667 227.5,54.3333 225.5,54.5C 217.913,54.2988 210.247,54.1321 202.5,54C 199.232,52.3584 198.899,50.5251 201.5,48.5 Z"/></g>
<g><path style="opacity:0.02" fill="#020310" d="M 241.5,48.5 C 243.104,49.287 243.771,50.6203 243.5,52.5C 247.846,52.6657 252.179,52.499 256.5,52C 257.337,50.9887 257.67,49.8221 257.5,48.5C 258.5,49.8333 259.5,49.8333 260.5,48.5C 260.5,49.8333 260.5,51.1667 260.5,52.5C 264.514,52.6655 268.514,52.4988 272.5,52C 273.305,50.8873 273.972,49.7206 274.5,48.5C 275.887,50.4888 275.553,52.3221 273.5,54C 271.167,54.1667 268.833,54.3333 266.5,54.5C 258.911,54.2255 251.245,54.0588 243.5,54C 241.845,52.5557 241.178,50.7224 241.5,48.5 Z"/></g>
<g><path style="opacity:0.02" fill="#02030f" d="M 289.5,48.5 C 289.511,50.0174 290.177,51.1841 291.5,52C 295.833,52.6667 300.167,52.6667 304.5,52C 305.684,50.8545 305.684,49.6879 304.5,48.5C 307.745,49.8189 308.078,51.6523 305.5,54C 300.5,54.6667 295.5,54.6667 290.5,54C 287.232,52.3584 286.899,50.5251 289.5,48.5 Z"/></g>
<g><path style="opacity:0.46" fill="#000000" d="M 92.5,57.5 C 95.2469,57.1866 97.9135,57.52 100.5,58.5C 98.777,60.8676 98.1103,63.5342 98.5,66.5C 97.1667,66.5 95.8333,66.5 94.5,66.5C 94.7105,63.248 94.0438,60.248 92.5,57.5 Z"/></g>
<g><path style="opacity:0.506" fill="#000000" d="M 102.5,57.5 C 104.857,57.3367 107.19,57.5034 109.5,58C 110.833,59.6667 110.833,61.3333 109.5,63C 110.357,63.6891 111.023,64.5224 111.5,65.5C 108.527,65.2873 105.527,65.6206 102.5,66.5C 102.5,63.5 102.5,60.5 102.5,57.5 Z"/></g>
<g><path style="opacity:0.484" fill="#000000" d="M 113.5,57.5 C 115.604,57.2011 117.604,57.5344 119.5,58.5C 118.167,60.8333 118.167,63.1667 119.5,65.5C 117.5,66.8333 115.5,66.8333 113.5,65.5C 114.703,62.8401 114.703,60.1735 113.5,57.5 Z"/></g>
<g><path style="opacity:0.45" fill="#000000" d="M 120.5,57.5 C 123.572,57.1826 126.572,57.5159 129.5,58.5C 127.777,60.8676 127.11,63.5342 127.5,66.5C 126.167,66.5 124.833,66.5 123.5,66.5C 123.5,64.1667 123.5,61.8333 123.5,59.5C 121.821,59.7148 120.821,59.0481 120.5,57.5 Z"/></g>
<g><path style="opacity:0.463" fill="#000000" d="M 131.5,57.5 C 134.167,57.5 136.833,57.5 139.5,57.5C 139.664,60.1873 139.497,62.854 139,65.5C 136.667,66.8333 134.333,66.8333 132,65.5C 131.503,62.854 131.336,60.1873 131.5,57.5 Z"/></g>
<g><path style="opacity:0.501" fill="#000000" d="M 142.5,57.5 C 144.857,57.3367 147.19,57.5034 149.5,58C 150.833,59.6667 150.833,61.3333 149.5,63C 150.357,63.6891 151.023,64.5224 151.5,65.5C 148.572,66.4841 145.572,66.8174 142.5,66.5C 142.5,63.5 142.5,60.5 142.5,57.5 Z"/></g>
<g><path style="opacity:0.494" fill="#000000" d="M 154.5,57.5 C 156.288,57.2148 157.955,57.5481 159.5,58.5C 160.785,61.0205 161.452,63.6872 161.5,66.5C 159.549,66.7733 158.049,66.1066 157,64.5C 155.951,66.1066 154.451,66.7733 152.5,66.5C 153.167,63.5 153.833,60.5 154.5,57.5 Z"/></g>
<g><path style="opacity:0.479" fill="#000000" d="M 163.5,57.5 C 165.857,57.3367 168.19,57.5034 170.5,58C 173.167,60.6667 173.167,63.3333 170.5,66C 168.19,66.4966 165.857,66.6633 163.5,66.5C 163.5,63.5 163.5,60.5 163.5,57.5 Z"/></g>
<g><path style="opacity:0.446" fill="#000000" d="M 176.5,57.5 C 183.61,56.9037 185.61,59.7371 182.5,66C 174.749,67.0913 172.749,64.258 176.5,57.5 Z M 178.5,60.5 C 180.76,61.2376 180.927,62.2376 179,63.5C 178.517,62.552 178.351,61.552 178.5,60.5 Z"/></g>
<g><path style="opacity:0.465" fill="#000000" d="M 186.5,57.5 C 188.924,57.1924 191.257,57.5258 193.5,58.5C 192.271,59.2811 190.938,59.7811 189.5,60C 193.318,60.6127 194.318,62.6127 192.5,66C 190.098,66.8141 187.765,66.6474 185.5,65.5C 186.729,64.7189 188.062,64.2189 189.5,64C 185.882,62.9356 184.882,60.7689 186.5,57.5 Z"/></g>
<g><path style="opacity:0.471" fill="#000000" d="M 201.5,57.5 C 204.527,58.3794 207.527,58.7127 210.5,58.5C 208.945,60.943 208.278,63.6097 208.5,66.5C 207.167,66.5 205.833,66.5 204.5,66.5C 204.023,63.345 203.023,60.345 201.5,57.5 Z"/></g>
<g><path style="opacity:0.502" fill="#000000" d="M 220.5,57.5 C 222.144,57.2865 223.644,57.6198 225,58.5C 226.341,61.022 227.174,63.6887 227.5,66.5C 225.549,66.7733 224.049,66.1066 223,64.5C 221.951,66.1066 220.451,66.7733 218.5,66.5C 218.756,63.4021 219.422,60.4021 220.5,57.5 Z"/></g>
<g><path style="opacity:0.483" fill="#000000" d="M 230.5,57.5 C 232.604,57.2011 234.604,57.5344 236.5,58.5C 235.271,59.2811 233.938,59.7811 232.5,60C 236.988,60.7333 237.988,62.7333 235.5,66C 233.098,66.8141 230.765,66.6474 228.5,65.5C 230.078,64.7022 231.744,64.2022 233.5,64C 228.76,63.1704 227.76,61.0037 230.5,57.5 Z"/></g>
<g><path style="opacity:0.489" fill="#000000" d="M 239.5,57.5 C 241.924,57.1924 244.257,57.5258 246.5,58.5C 245.624,59.2508 244.624,59.7508 243.5,60C 247.456,61.1139 247.456,61.9473 243.5,62.5C 243.5,63.8333 243.5,65.1667 243.5,66.5C 242.167,66.5 240.833,66.5 239.5,66.5C 239.5,63.5 239.5,60.5 239.5,57.5 Z"/></g>
<g><path style="opacity:0.503" fill="#000000" d="M 250.5,57.5 C 251.978,57.238 253.311,57.5713 254.5,58.5C 255.305,60.9154 256.305,63.2487 257.5,65.5C 254.167,65.5 250.833,65.5 247.5,65.5C 248.508,62.8048 249.508,60.1381 250.5,57.5 Z"/></g>
<g><path style="opacity:0.458" fill="#000000" d="M 258.5,57.5 C 259.833,57.5 261.167,57.5 262.5,57.5C 262.5,59.8333 262.5,62.1667 262.5,64.5C 263.978,64.238 265.311,64.5713 266.5,65.5C 263.914,66.48 261.247,66.8134 258.5,66.5C 258.5,63.5 258.5,60.5 258.5,57.5 Z"/></g>
<g><path style="opacity:0.46" fill="#000000" d="M 267.5,57.5 C 270.247,57.1866 272.914,57.52 275.5,58.5C 273.777,60.8676 273.11,63.5342 273.5,66.5C 272.167,66.5 270.833,66.5 269.5,66.5C 269.71,63.248 269.044,60.248 267.5,57.5 Z"/></g>
<g><path style="opacity:0.466" fill="#000000" d="M 279.5,57.5 C 286.303,56.7348 288.303,59.5681 285.5,66C 283.101,66.711 280.768,66.5443 278.5,65.5C 277.121,62.533 277.454,59.8663 279.5,57.5 Z M 281.5,59.5 C 283.765,60.9402 283.932,62.6068 282,64.5C 281.506,62.8659 281.34,61.1992 281.5,59.5 Z"/></g>
<g><path style="opacity:0.465" fill="#000000" d="M 289.5,57.5 C 291.924,57.1924 294.257,57.5258 296.5,58.5C 295.271,59.2811 293.938,59.7811 292.5,60C 296.318,60.6127 297.318,62.6127 295.5,66C 293.098,66.8141 290.765,66.6474 288.5,65.5C 289.729,64.7189 291.062,64.2189 292.5,64C 288.882,62.9356 287.882,60.7689 289.5,57.5 Z"/></g>
<g><path style="opacity:0.821" fill="#ebebeb" d="M 64.5,63.5 C 63.8333,63.5 63.1667,63.5 62.5,63.5C 62.0805,61.9064 61.4138,60.4064 60.5,59C 60.8333,58.5 61.1667,58 61.5,57.5C 63.5531,58.9394 64.5531,60.9394 64.5,63.5 Z"/></g>
</svg>
