<?xml version="1.0" encoding="UTF-8"?>
<!DOCTYPE svg PUBLIC "-//W3C//DTD SVG 1.1//EN" "http://www.w3.org/Graphics/SVG/1.1/DTD/svg11.dtd">
<svg xmlns="http://www.w3.org/2000/svg" version="1.1" width="320px" height="75px" style="shape-rendering:geometricPrecision; text-rendering:geometricPrecision; image-rendering:optimizeQuality; fill-rule:evenodd; clip-rule:evenodd" xmlns:xlink="http://www.w3.org/1999/xlink">
<g><path style="opacity:0.821" fill="#16279b" d="M 59.5,21.5 C 58.7354,21.0766 57.9021,20.7432 57,20.5C 55.0748,22.5385 52.9081,24.2052 50.5,25.5C 49.791,24.596 48.791,24.2627 47.5,24.5C 50.1059,20.2073 53.7725,17.5406 58.5,16.5C 58.6287,18.2161 58.962,19.8828 59.5,21.5 Z"/></g>
<g><path style="opacity:1" fill="#16279b" d="M 110.5,24.5 C 106.833,24.5 103.167,24.5 99.5,24.5C 99.6664,32.5069 99.4997,40.5069 99,48.5C 97.3023,49.733 95.3023,50.3996 93,50.5C 90.6977,50.3996 88.6977,49.733 87,48.5C 86.5003,40.5069 86.3336,32.5069 86.5,24.5C 83.1667,24.5 79.8333,24.5 76.5,24.5C 75.1857,22.1047 75.1857,19.6047 76.5,17C 87.8333,16.3333 99.1667,16.3333 110.5,17C 111.814,19.6047 111.814,22.1047 110.5,24.5 Z"/></g>
<g><path style="opacity:1" fill="#162699" d="M 151.5,48.5 C 151.953,49.4584 152.619,50.2917 153.5,51C 153.167,51.3333 152.833,51.6667 152.5,52C 147.5,52.6667 142.5,52.6667 137.5,52C 136.695,50.8873 136.028,49.7206 135.5,48.5C 133.895,45.6223 132.561,42.6223 131.5,39.5C 130.081,38.5489 128.415,38.2155 126.5,38.5C 126.759,42.2396 126.426,45.9062 125.5,49.5C 121.833,50.8333 118.167,50.8333 114.5,49.5C 113.523,38.8853 113.19,28.2186 113.5,17.5C 122.324,16.3427 131.324,16.176 140.5,17C 148.696,19.1776 151.862,24.3443 150,32.5C 147.982,34.3501 146.149,36.3501 144.5,38.5C 146.843,41.8624 149.176,45.1957 151.5,48.5 Z M 127.5,24.5 C 129.857,24.3367 132.19,24.5034 134.5,25C 137.228,27.4348 136.894,29.4348 133.5,31C 131.527,31.4955 129.527,31.6621 127.5,31.5C 127.5,29.1667 127.5,26.8333 127.5,24.5 Z"/></g>
<g><path style="opacity:1" fill="#162697" d="M 170.5,48.5 C 170.67,49.8221 170.337,50.9887 169.5,52C 165.5,52.6667 161.5,52.6667 157.5,52C 156.663,50.9887 156.33,49.8221 156.5,48.5C 156.334,38.1613 156.5,27.828 157,17.5C 161.333,16.1667 165.667,16.1667 170,17.5C 170.5,27.828 170.666,38.1613 170.5,48.5 Z"/></g>
<g><path style="opacity:1" fill="#162697" d="M 216.5,48.5 C 217.684,49.6879 217.684,50.8545 216.5,52C 212.167,52.6667 207.833,52.6667 203.5,52C 202.177,51.1841 201.511,50.0174 201.5,48.5C 201.196,47.8501 200.863,47.1835 200.5,46.5C 196.167,45.1667 191.833,45.1667 187.5,46.5C 187.137,47.1835 186.804,47.8501 186.5,48.5C 185.132,52.0013 182.465,53.3346 178.5,52.5C 176.5,52.3333 174.5,52.1667 172.5,52C 171.829,51.0138 171.829,49.8471 172.5,48.5C 177.676,37.983 183.009,27.483 188.5,17C 192.833,16.3333 197.167,16.3333 201.5,17C 206.626,27.4194 211.626,37.9194 216.5,48.5 Z M 193.5,29.5 C 195.02,31.8902 196.02,34.5568 196.5,37.5C 194.473,37.6621 192.473,37.4955 190.5,37C 191.642,34.5501 192.642,32.0501 193.5,29.5 Z"/></g>
<g><path style="opacity:1" fill="#162698" d="M 256.5,17.5 C 256.666,27.8387 256.5,38.172 256,48.5C 254.302,49.733 252.302,50.3996 250,50.5C 247.319,50.2306 244.819,49.5639 242.5,48.5C 242.167,48.5 241.833,48.5 241.5,48.5C 238.608,43.0569 235.441,37.7235 232,32.5C 231.501,37.8229 231.334,43.1563 231.5,48.5C 231.67,49.8221 231.337,50.9887 230.5,52C 227.167,52.6667 223.833,52.6667 220.5,52C 219.663,50.9887 219.33,49.8221 219.5,48.5C 219.18,37.9179 219.513,27.4179 220.5,17C 225.167,16.3333 229.833,16.3333 234.5,17C 237.876,22.2532 241.376,27.4198 245,32.5C 245.333,27.5 245.667,22.5 246,17.5C 249.601,16.1802 253.101,16.1802 256.5,17.5 Z"/></g>
<g><path style="opacity:1" fill="#121f7c" d="M 256.5,17.5 C 257.494,27.6532 257.828,37.9865 257.5,48.5C 257.67,49.8221 257.337,50.9887 256.5,52C 252.5,52.6667 248.5,52.6667 244.5,52C 243.695,50.8873 243.028,49.7206 242.5,48.5C 244.819,49.5639 247.319,50.2306 250,50.5C 252.302,50.3996 254.302,49.733 256,48.5C 256.5,38.172 256.666,27.8387 256.5,17.5 Z"/></g>
<g><path style="opacity:1" fill="#162697" d="M 304.5,48.5 C 305.684,49.6879 305.684,50.8545 304.5,52C 300.167,52.6667 295.833,52.6667 291.5,52C 290.177,51.1841 289.511,50.0174 289.5,48.5C 289.196,47.8501 288.863,47.1835 288.5,46.5C 284.167,45.1667 279.833,45.1667 275.5,46.5C 275.137,47.1835 274.804,47.8501 274.5,48.5C 273.132,52.0013 270.465,53.3346 266.5,52.5C 264.5,52.3333 262.5,52.1667 260.5,52C 259.829,51.0138 259.829,49.8471 260.5,48.5C 265.676,37.983 271.009,27.483 276.5,17C 280.833,16.3333 285.167,16.3333 289.5,17C 294.626,27.4194 299.626,37.9194 304.5,48.5 Z M 281.5,29.5 C 283.02,31.8902 284.02,34.5568 284.5,37.5C 282.473,37.6621 280.473,37.4955 278.5,37C 279.642,34.5501 280.642,32.0501 281.5,29.5 Z"/></g>
<g><path style="opacity:1" fill="#121f7c" d="M 76.5,24.5 C 79.8333,24.5 83.1667,24.5 86.5,24.5C 86.3336,32.5069 86.5003,40.5069 87,48.5C 88.6977,49.733 90.6977,50.3996 93,50.5C 95.3023,50.3996 97.3023,49.733 99,48.5C 99.4997,40.5069 99.6664,32.5069 99.5,24.5C 103.167,24.5 106.833,24.5 110.5,24.5C 107.375,25.4794 104.042,25.8128 100.5,25.5C 100.5,33.1667 100.5,40.8333 100.5,48.5C 100.67,49.8221 100.337,50.9887 99.5,52C 94.7481,52.7734 90.0815,52.6068 85.5,51.5C 85.5,42.8333 85.5,34.1667 85.5,25.5C 82.2869,25.81 79.2869,25.4767 76.5,24.5 Z"/></g>
<g><path style="opacity:1" fill="#0d1b6d" d="M 59.5,21.5 C 60.8698,23.2504 61.8698,25.2504 62.5,27.5C 61.1932,28.1534 59.8599,28.8201 58.5,29.5C 56.5607,27.3824 54.394,27.049 52,28.5C 50.9614,27.7562 50.4614,26.7562 50.5,25.5C 52.9081,24.2052 55.0748,22.5385 57,20.5C 57.9021,20.7432 58.7354,21.0766 59.5,21.5 Z"/></g>
<g><path style="opacity:0.887" fill="#16279c" d="M 46.5,25.5 C 49.2897,28.2988 52.123,31.2988 55,34.5C 55.195,35.8193 55.0283,37.1526 54.5,38.5C 49.1787,36.8376 43.8453,35.1709 38.5,33.5C 40.8544,30.4789 43.5211,27.8123 46.5,25.5 Z"/></g>
<g><path style="opacity:0.761" fill="#16279c" d="M 64.5,32.5 C 67.9437,40.033 70.777,47.6996 73,55.5C 69.3028,50.6377 65.1361,46.3043 60.5,42.5C 61.9657,39.7528 62.7991,36.7528 63,33.5C 63.3826,32.944 63.8826,32.6107 64.5,32.5 Z"/></g>
<g><path style="opacity:0.904" fill="#081454" d="M 47.5,24.5 C 48.791,24.2627 49.791,24.596 50.5,25.5C 50.4614,26.7562 50.9614,27.7562 52,28.5C 54.394,27.049 56.5607,27.3824 58.5,29.5C 59.8599,28.8201 61.1932,28.1534 62.5,27.5C 63.1667,29.1667 63.8333,30.8333 64.5,32.5C 63.8826,32.6107 63.3826,32.944 63,33.5C 62.7991,36.7528 61.9657,39.7528 60.5,42.5C 58.1184,41.6493 56.1184,40.316 54.5,38.5C 55.0283,37.1526 55.195,35.8193 55,34.5C 52.123,31.2988 49.2897,28.2988 46.5,25.5C 46.5,24.8333 46.8333,24.5 47.5,24.5 Z"/></g>
<g><path style="opacity:0.894" fill="#1f1f1d" d="M 64.5,63.5 C 64.5531,60.9394 63.5531,58.9394 61.5,57.5C 61.1667,58 60.8333,58.5 60.5,59C 61.4138,60.4064 62.0805,61.9064 62.5,63.5C 59.4281,63.8174 56.4281,63.4841 53.5,62.5C 50.2411,57.0263 45.5744,53.193 39.5,51C 32.0089,48.6959 24.3422,47.3625 16.5,47C 18.0414,45.6288 19.3747,44.1288 20.5,42.5C 25.2137,42.8266 29.8804,42.4933 34.5,41.5C 30.5546,40.5091 26.5546,40.1758 22.5,40.5C 24.3858,36.4561 27.5525,34.7894 32,35.5C 50.995,36.6768 64.8283,45.6768 73.5,62.5C 70.5719,63.4841 67.5719,63.8174 64.5,63.5 Z"/></g>
<g><path style="opacity:0.875" fill="#eaeaea" d="M 22.5,40.5 C 26.5546,40.1758 30.5546,40.5091 34.5,41.5C 29.8804,42.4933 25.2137,42.8266 20.5,42.5C 20.8333,41.5 21.5,40.8333 22.5,40.5 Z"/></g>
<g><path style="opacity:1" fill="#d4d4d3" d="M 35.5,41.5 C 39.0487,41.4392 42.3821,42.2725 45.5,44C 44.8921,44.8699 44.0588,45.3699 43,45.5C 39.869,44.9856 37.369,43.6523 35.5,41.5 Z"/></g>
<g><path style="opacity:1" fill="#d9d9d8" d="M 54.5,50.5 C 51.2857,49.5596 48.2857,48.0596 45.5,46C 46,45.5 46.5,45 47,44.5C 49.087,45.7938 51.2537,46.9605 53.5,48C 54.2524,48.6708 54.5858,49.5041 54.5,50.5 Z"/></g>
<g><path style="opacity:0.857" fill="#c0bfbf" d="M 21.5,49.5 C 33.1463,48.9915 42.4796,53.3248 49.5,62.5C 36.8465,63.666 24.1798,63.8326 11.5,63C 10.5494,62.2825 10.3828,61.4491 11,60.5C 14.7039,56.9643 18.2039,53.2976 21.5,49.5 Z"/></g>
<g><path style="opacity:1" fill="#132081" d="M 113.5,17.5 C 113.19,28.2186 113.523,38.8853 114.5,49.5C 118.167,50.8333 121.833,50.8333 125.5,49.5C 126.426,45.9062 126.759,42.2396 126.5,38.5C 128.415,38.2155 130.081,38.5489 131.5,39.5C 130.167,39.5 128.833,39.5 127.5,39.5C 127.5,42.5 127.5,45.5 127.5,48.5C 127.67,49.8221 127.337,50.9887 126.5,52C 122.167,52.6667 117.833,52.6667 113.5,52C 112.663,50.9887 112.33,49.8221 112.5,48.5C 112.172,37.9865 112.506,27.6532 113.5,17.5 Z"/></g>
<g><path style="opacity:1" fill="#e4e4e3" d="M 54.5,50.5 C 57.1865,51.6638 59.5199,53.4971 61.5,56C 57.921,55.9369 55.5877,54.1036 54.5,50.5 Z"/></g>
<g><path style="opacity:0.114" fill="#02030f" d="M 100.5,48.5 C 101.801,49.8845 101.801,51.3845 100.5,53C 98,53.1667 95.5,53.3333 93,53.5C 90.0706,53.4752 87.5706,52.8086 85.5,51.5C 90.0815,52.6068 94.7481,52.7734 99.5,52C 100.337,50.9887 100.67,49.8221 100.5,48.5 Z"/></g>
<g><path style="opacity:0.114" fill="#020311" d="M 112.5,48.5 C 112.33,49.8221 112.663,50.9887 113.5,52C 117.833,52.6667 122.167,52.6667 126.5,52C 127.337,50.9887 127.67,49.8221 127.5,48.5C 128.801,49.8845 128.801,51.3845 127.5,53C 122.5,53.6667 117.5,53.6667 112.5,53C 111.199,51.3845 111.199,49.8845 112.5,48.5 Z"/></g>
<g><path style="opacity:0.114" fill="#020310" d="M 135.5,48.5 C 136.028,49.7206 136.695,50.8873 137.5,52C 142.5,52.6667 147.5,52.6667 152.5,52C 152.833,51.6667 153.167,51.3333 153.5,51C 152.619,50.2917 151.953,49.4584 151.5,48.5C 154.389,48.999 155.056,50.499 153.5,53C 147.833,53.6667 142.167,53.6667 136.5,53C 134.935,51.4943 134.601,49.9943 135.5,48.5 Z"/></g>
<g><path style="opacity:0.114" fill="#020311" d="M 156.5,48.5 C 156.33,49.8221 156.663,50.9887 157.5,52C 161.5,52.6667 165.5,52.6667 169.5,52C 170.337,50.9887 170.67,49.8221 170.5,48.5C 171.167,48.5 171.833,48.5 172.5,48.5C 171.829,49.8471 171.829,51.0138 172.5,52C 174.5,52.1667 176.5,52.3333 178.5,52.5C 182.465,53.3346 185.132,52.0013 186.5,48.5C 187.399,49.9943 187.065,51.4943 185.5,53C 183.167,53.1667 180.833,53.3333 178.5,53.5C 171.304,53.2631 163.971,53.0964 156.5,53C 155.199,51.3845 155.199,49.8845 156.5,48.5 Z"/></g>
<g><path style="opacity:0.114" fill="#020311" d="M 201.5,48.5 C 201.511,50.0174 202.177,51.1841 203.5,52C 207.833,52.6667 212.167,52.6667 216.5,52C 217.684,50.8545 217.684,49.6879 216.5,48.5C 217.5,48.5 218.5,48.5 219.5,48.5C 219.33,49.8221 219.663,50.9887 220.5,52C 223.833,52.6667 227.167,52.6667 230.5,52C 231.337,50.9887 231.67,49.8221 231.5,48.5C 232.801,49.8845 232.801,51.3845 231.5,53C 229.5,53.1667 227.5,53.3333 225.5,53.5C 217.913,53.2988 210.247,53.1321 202.5,53C 200.534,51.6534 200.201,50.1534 201.5,48.5 Z"/></g>
<g><path style="opacity:0.114" fill="#020311" d="M 241.5,48.5 C 241.833,48.5 242.167,48.5 242.5,48.5C 243.028,49.7206 243.695,50.8873 244.5,52C 248.5,52.6667 252.5,52.6667 256.5,52C 257.337,50.9887 257.67,49.8221 257.5,48.5C 258.5,49.8333 259.5,49.8333 260.5,48.5C 259.829,49.8471 259.829,51.0138 260.5,52C 262.5,52.1667 264.5,52.3333 266.5,52.5C 270.465,53.3346 273.132,52.0013 274.5,48.5C 275.399,49.9943 275.065,51.4943 273.5,53C 271.167,53.1667 268.833,53.3333 266.5,53.5C 258.911,53.2255 251.245,53.0588 243.5,53C 242.418,51.6703 241.751,50.1703 241.5,48.5 Z"/></g>
<g><path style="opacity:0.114" fill="#020311" d="M 289.5,48.5 C 289.511,50.0174 290.177,51.1841 291.5,52C 295.833,52.6667 300.167,52.6667 304.5,52C 305.684,50.8545 305.684,49.6879 304.5,48.5C 306.71,49.4551 307.043,50.9551 305.5,53C 300.5,53.6667 295.5,53.6667 290.5,53C 288.534,51.6534 288.201,50.1534 289.5,48.5 Z"/></g>
<g><path style="opacity:0.39" fill="#000000" d="M 89.5,55.5 C 92.2469,55.1866 94.9135,55.52 97.5,56.5C 96.675,57.3857 95.675,57.719 94.5,57.5C 94.5,59.8333 94.5,62.1667 94.5,64.5C 93.5,64.5 92.5,64.5 91.5,64.5C 91.7105,61.248 91.0438,58.248 89.5,55.5 Z"/></g>
<g><path style="opacity:0.402" fill="#000000" d="M 100.5,55.5 C 102.527,55.3379 104.527,55.5045 106.5,56C 107.833,57.6667 107.833,59.3333 106.5,61C 108.559,62.1855 108.726,63.3521 107,64.5C 105.739,64.2409 104.739,63.5742 104,62.5C 103.29,63.9733 102.124,64.6399 100.5,64.5C 100.5,61.5 100.5,58.5 100.5,55.5 Z"/></g>
<g><path style="opacity:0.382" fill="#000000" d="M 111.5,55.5 C 113.288,55.2148 114.955,55.5481 116.5,56.5C 115.167,58.8333 115.167,61.1667 116.5,63.5C 114.833,64.8333 113.167,64.8333 111.5,63.5C 112.703,60.8401 112.703,58.1735 111.5,55.5 Z"/></g>
<g><path style="opacity:0.36" fill="#000000" d="M 118.5,55.5 C 121.572,55.1826 124.572,55.5159 127.5,56.5C 126.675,57.3857 125.675,57.719 124.5,57.5C 124.5,59.8333 124.5,62.1667 124.5,64.5C 123.5,64.5 122.5,64.5 121.5,64.5C 121.5,62.1667 121.5,59.8333 121.5,57.5C 119.821,57.7148 118.821,57.0481 118.5,55.5 Z"/></g>
<g><path style="opacity:0.338" fill="#000000" d="M 129.5,55.5 C 130.833,55.5 132.167,55.5 133.5,55.5C 133.703,64.6354 134.37,64.6354 135.5,55.5C 136.5,55.5 137.5,55.5 138.5,55.5C 140.029,62.4679 137.529,65.1346 131,63.5C 129.748,60.9865 129.248,58.3198 129.5,55.5 Z"/></g>
<g><path style="opacity:0.382" fill="#000000" d="M 141.5,55.5 C 143.833,55.5 146.167,55.5 148.5,55.5C 148.11,58.4658 148.777,61.1324 150.5,63.5C 148.389,64.8485 146.555,64.5152 145,62.5C 144.29,63.9733 143.124,64.6399 141.5,64.5C 141.5,61.5 141.5,58.5 141.5,55.5 Z"/></g>
<g><path style="opacity:0.359" fill="#000000" d="M 154.5,55.5 C 155.978,55.238 157.311,55.5713 158.5,56.5C 159.785,59.0205 160.452,61.6872 160.5,64.5C 158.857,64.5198 157.524,63.8532 156.5,62.5C 155.476,63.8532 154.143,64.5198 152.5,64.5C 152.756,61.4021 153.422,58.4021 154.5,55.5 Z"/></g>
<g><path style="opacity:0.369" fill="#000000" d="M 163.5,55.5 C 165.857,55.3367 168.19,55.5034 170.5,56C 173.167,58.6667 173.167,61.3333 170.5,64C 168.19,64.4966 165.857,64.6633 163.5,64.5C 163.5,61.5 163.5,58.5 163.5,55.5 Z M 167.5,57.5 C 169.898,58.8823 170.065,60.549 168,62.5C 167.506,60.8659 167.34,59.1992 167.5,57.5 Z"/></g>
<g><path style="opacity:0.349" fill="#000000" d="M 177.5,55.5 C 184.303,54.7348 186.303,57.5681 183.5,64C 175.749,65.0913 173.749,62.258 177.5,55.5 Z M 179.5,57.5 C 181.898,58.8823 182.065,60.549 180,62.5C 178.212,60.9769 178.045,59.3102 179.5,57.5 Z"/></g>
<g><path style="opacity:0.346" fill="#000000" d="M 188.5,55.5 C 190.833,55.5 193.167,55.5 195.5,55.5C 195.64,57.1238 194.973,58.2904 193.5,59C 195.283,60.0665 195.783,61.5665 195,63.5C 192.163,65.0531 189.663,64.7198 187.5,62.5C 188.376,61.7492 189.376,61.2492 190.5,61C 187.541,59.9543 186.874,58.1209 188.5,55.5 Z"/></g>
<g><path style="opacity:0.325" fill="#000000" d="M 205.5,55.5 C 207.39,55.2965 208.89,55.9632 210,57.5C 211.153,55.503 212.653,55.1696 214.5,56.5C 212.377,58.7454 211.377,61.4121 211.5,64.5C 210.5,64.5 209.5,64.5 208.5,64.5C 208.336,61.1826 207.336,58.1826 205.5,55.5 Z"/></g>
<g><path style="opacity:0.371" fill="#000000" d="M 226.5,55.5 C 227.822,55.33 228.989,55.6634 230,56.5C 231.136,59.0964 231.969,61.763 232.5,64.5C 230.8,64.3739 229.3,63.7073 228,62.5C 226.7,63.7073 225.2,64.3739 223.5,64.5C 224.216,61.4018 225.216,58.4018 226.5,55.5 Z"/></g>
<g><path style="opacity:0.377" fill="#000000" d="M 236.5,55.5 C 238.5,55.5 240.5,55.5 242.5,55.5C 242.64,57.1238 241.973,58.2904 240.5,59C 243.266,59.6912 243.933,61.1912 242.5,63.5C 240.257,64.4742 237.924,64.8076 235.5,64.5C 235.281,63.325 235.614,62.325 236.5,61.5C 237.451,62.3256 238.451,62.4922 239.5,62C 238.437,60.8118 237.103,60.3118 235.5,60.5C 235.366,58.7085 235.699,57.0418 236.5,55.5 Z"/></g>
<g><path style="opacity:0.41" fill="#000000" d="M 246.5,55.5 C 248.924,55.1924 251.257,55.5258 253.5,56.5C 252.271,57.2811 250.938,57.7811 249.5,58C 253.456,59.1139 253.456,59.9473 249.5,60.5C 249.5,61.8333 249.5,63.1667 249.5,64.5C 248.5,64.5 247.5,64.5 246.5,64.5C 246.5,61.5 246.5,58.5 246.5,55.5 Z"/></g>
<g><path style="opacity:0.371" fill="#000000" d="M 258.5,55.5 C 259.822,55.33 260.989,55.6634 262,56.5C 263.136,59.0964 263.969,61.763 264.5,64.5C 262.8,64.3739 261.3,63.7073 260,62.5C 258.7,63.7073 257.2,64.3739 255.5,64.5C 256.216,61.4018 257.216,58.4018 258.5,55.5 Z"/></g>
<g><path style="opacity:0.382" fill="#000000" d="M 267.5,55.5 C 268.5,55.5 269.5,55.5 270.5,55.5C 270.5,57.8333 270.5,60.1667 270.5,62.5C 271.978,62.238 273.311,62.5713 274.5,63.5C 272.257,64.4742 269.924,64.8076 267.5,64.5C 267.5,61.5 267.5,58.5 267.5,55.5 Z"/></g>
<g><path style="opacity:0.39" fill="#000000" d="M 276.5,55.5 C 279.247,55.1866 281.914,55.52 284.5,56.5C 283.675,57.3857 282.675,57.719 281.5,57.5C 281.5,59.8333 281.5,62.1667 281.5,64.5C 280.5,64.5 279.5,64.5 278.5,64.5C 278.71,61.248 278.044,58.248 276.5,55.5 Z"/></g>
<g><path style="opacity:0.351" fill="#000000" d="M 288.5,55.5 C 295.997,54.8038 297.997,57.6372 294.5,64C 292.231,64.7581 290.064,64.5914 288,63.5C 287.278,60.7395 287.445,58.0728 288.5,55.5 Z M 291.5,57.5 C 293.898,58.8823 294.065,60.549 292,62.5C 290.212,60.9769 290.045,59.3102 291.5,57.5 Z"/></g>
<g><path style="opacity:0.821" fill="#ebebeb" d="M 64.5,63.5 C 63.8333,63.5 63.1667,63.5 62.5,63.5C 62.0805,61.9064 61.4138,60.4064 60.5,59C 60.8333,58.5 61.1667,58 61.5,57.5C 63.5531,58.9394 64.5531,60.9394 64.5,63.5 Z"/></g>
</svg>
